<svg id="Layer_1" data-name="Layer 1" xmlns="http://www.w3.org/2000/svg" xmlns:xlink="http://www.w3.org/1999/xlink" viewBox="0 0 295.83 295.83"><defs><style>.cls-1{fill:none;}.cls-2{fill:#fff;}.cls-3{clip-path:url(#clip-path);}.cls-4{fill:#3fa31d;}</style><clipPath id="clip-path" transform="translate(-151.43 -255.65)"><rect class="cls-1" x="213.65" y="317.87" width="171.39" height="171.39" rx="23.48"/></clipPath></defs><rect class="cls-2" width="295.83" height="295.83"/><g class="cls-3"><rect class="cls-4" x="62.22" y="62.22" width="171.39" height="171.39" rx="23.48"/><path class="cls-2" d="M346.61,350.61H288.48c-8.43,0-15.27,6.44-15.27,14.39v15.58c0,7.94,6.84,14.39,15.27,14.39h46.08q8.54,0,12.74,3.61a12.06,12.06,0,0,1,4.2,9.64,11.83,11.83,0,0,1-4.26,9.58q-4.28,3.54-12.68,3.55H288.48c-8.43,0-15.27,6.44-15.27,14.39v42.74q0,10.89-5.2,16.15a18,18,0,0,1-13.37,5.26q-8.28,0-13.48-5.32T236,478.48V345.05c0-5,.79-9.17,2.38-12.36a14.44,14.44,0,0,1,7.47-7,33,33,0,0,1,13-2.19h87.83q8.91,0,13.24,3.73a12.27,12.27,0,0,1,4.32,9.76,12.41,12.41,0,0,1-4.32,9.88Q355.52,350.61,346.61,350.61Z" transform="translate(-151.43 -255.65)"/><path class="cls-2" d="M352.72,476.31a19.89,19.89,0,0,1-3.61,12,22,22,0,0,1-10.66,7.55,50.49,50.49,0,0,1-17.16,2.56,44,44,0,0,1-16.53-2.78q-6.9-2.79-10.17-7a13.52,13.52,0,0,1-3.28-8.38,6.3,6.3,0,0,1,2.1-4.76,7.43,7.43,0,0,1,5.31-2,6.44,6.44,0,0,1,4.33,1.3,14.14,14.14,0,0,1,2.89,3.65,19,19,0,0,0,6.59,6.74q3.84,2.22,10.47,2.22a15.86,15.86,0,0,0,8.82-2.25c2.3-1.51,3.44-3.23,3.44-5.17a6.92,6.92,0,0,0-3.57-6.49q-3.58-2-11.78-3.9a101.28,101.28,0,0,1-15.05-4.55,24.75,24.75,0,0,1-9.29-6.27,13.89,13.89,0,0,1-3.48-9.59,16.29,16.29,0,0,1,3.22-9.59,21.86,21.86,0,0,1,9.48-7.21,38.31,38.31,0,0,1,15.12-2.69,53,53,0,0,1,12.5,1.36,32.39,32.39,0,0,1,9.25,3.65,18.67,18.67,0,0,1,5.64,5.08,9.54,9.54,0,0,1,1.94,5.44,6.09,6.09,0,0,1-2.07,4.76,8.47,8.47,0,0,1-5.87,1.86,7.47,7.47,0,0,1-4.69-1.49,29.81,29.81,0,0,1-4.43-4.45,14.11,14.11,0,0,0-12.27-5.44,15.31,15.31,0,0,0-8.07,1.95q-3.21,1.94-3.21,4.85a5.17,5.17,0,0,0,2.36,4.36,20.2,20.2,0,0,0,6.36,2.82q4,1.11,11,2.72A61.54,61.54,0,0,1,342,461.77a22.41,22.41,0,0,1,8,6.28A13.38,13.38,0,0,1,352.72,476.31Z" transform="translate(-151.43 -255.65)"/></g></svg>